<svg xmlns="http://www.w3.org/2000/svg" viewBox="0 0 512 512">
  <rect width="512" height="512" rx="100" fill="#030712"/>
  <circle cx="256" cy="256" r="210" fill="none" stroke="#1f2937" stroke-width="6"/>
  <path d="M256,256 L256,50 A206,206 0 0,1 462,256 Z" fill="#ef444420"/>
  <path d="M256,256 L462,256 A206,206 0 0,1 256,462 Z" fill="#a855f720"/>
  <path d="M256,256 L256,462 A206,206 0 0,1 50,256 Z" fill="#3b82f620"/>
  <path d="M256,256 L50,256 A206,206 0 0,1 256,50 Z" fill="#22c55e20"/>
  <line x1="256" y1="50" x2="256" y2="462" stroke="#1f2937" stroke-width="3"/>
  <line x1="50" y1="256" x2="462" y2="256" stroke="#1f2937" stroke-width="3"/>
  <rect x="248" y="90" width="16" height="200" rx="4" fill="#e5e7eb"/>
  <rect x="210" y="278" width="92" height="18" rx="5" fill="#9ca3af"/>
  <rect x="249" y="296" width="14" height="80" rx="4" fill="#6b7280"/>
  <circle cx="256" cy="388" r="16" fill="#9ca3af"/>
  <circle cx="160" cy="160" r="14" fill="#ef4444" opacity="0.9"/>
  <circle cx="352" cy="160" r="14" fill="#a855f7" opacity="0.9"/>
  <circle cx="352" cy="352" r="14" fill="#3b82f6" opacity="0.9"/>
  <circle cx="160" cy="352" r="14" fill="#22c55e" opacity="0.9"/>
</svg>
